<svg xmlns="http://www.w3.org/2000/svg" xmlns:xlink="http://www.w3.org/1999/xlink" version="1.1" class="marks" width="367" height="377" viewBox="0 0 367 377"><rect width="367" height="377" fill="white"/><g fill="none" stroke-miterlimit="10" transform="translate(53,42)"><g class="mark-group role-frame root" role="graphics-object" aria-roledescription="group mark container"><g transform="translate(0,0)"><path class="background" aria-hidden="true" d="M0,0h0v0h0Z"/><g><g class="mark-group role-row-header row_header" role="graphics-object" aria-roledescription="group mark container"><g transform="translate(0,0)"><path class="background" aria-hidden="true" d="M0,0h0v300h0Z"/><g><g class="mark-group role-axis" role="graphics-symbol" aria-roledescription="axis" aria-label="Y-axis titled 'MiB/s' for a linear scale with values from 0 to 2,000"><g transform="translate(0.5,0.5)"><path class="background" aria-hidden="true" d="M0,0h0v0h0Z" pointer-events="none"/><g><g class="mark-rule role-axis-tick" pointer-events="none"><line transform="translate(0,300)" x2="-5" y2="0" stroke="#888" stroke-width="1" opacity="1"/><line transform="translate(0,270)" x2="-5" y2="0" stroke="#888" stroke-width="1" opacity="1"/><line transform="translate(0,240)" x2="-5" y2="0" stroke="#888" stroke-width="1" opacity="1"/><line transform="translate(0,210)" x2="-5" y2="0" stroke="#888" stroke-width="1" opacity="1"/><line transform="translate(0,180)" x2="-5" y2="0" stroke="#888" stroke-width="1" opacity="1"/><line transform="translate(0,150)" x2="-5" y2="0" stroke="#888" stroke-width="1" opacity="1"/><line transform="translate(0,120)" x2="-5" y2="0" stroke="#888" stroke-width="1" opacity="1"/><line transform="translate(0,90)" x2="-5" y2="0" stroke="#888" stroke-width="1" opacity="1"/><line transform="translate(0,60)" x2="-5" y2="0" stroke="#888" stroke-width="1" opacity="1"/><line transform="translate(0,30)" x2="-5" y2="0" stroke="#888" stroke-width="1" opacity="1"/><line transform="translate(0,0)" x2="-5" y2="0" stroke="#888" stroke-width="1" opacity="1"/></g><g class="mark-text role-axis-label" pointer-events="none"><text text-anchor="end" transform="translate(-7,303)" font-family="sans-serif" font-size="10px" fill="#000" opacity="1">0</text><text text-anchor="end" transform="translate(-7,273)" font-family="sans-serif" font-size="10px" fill="#000" opacity="1">200</text><text text-anchor="end" transform="translate(-7,243)" font-family="sans-serif" font-size="10px" fill="#000" opacity="1">400</text><text text-anchor="end" transform="translate(-7,213)" font-family="sans-serif" font-size="10px" fill="#000" opacity="1">600</text><text text-anchor="end" transform="translate(-7,183)" font-family="sans-serif" font-size="10px" fill="#000" opacity="1">800</text><text text-anchor="end" transform="translate(-7,153)" font-family="sans-serif" font-size="10px" fill="#000" opacity="1">1,000</text><text text-anchor="end" transform="translate(-7,123)" font-family="sans-serif" font-size="10px" fill="#000" opacity="1">1,200</text><text text-anchor="end" transform="translate(-7,93.00000000000001)" font-family="sans-serif" font-size="10px" fill="#000" opacity="1">1,400</text><text text-anchor="end" transform="translate(-7,62.999999999999986)" font-family="sans-serif" font-size="10px" fill="#000" opacity="1">1,600</text><text text-anchor="end" transform="translate(-7,32.99999999999999)" font-family="sans-serif" font-size="10px" fill="#000" opacity="1">1,800</text><text text-anchor="end" transform="translate(-7,3)" font-family="sans-serif" font-size="10px" fill="#000" opacity="1">2,000</text></g><g class="mark-rule role-axis-domain" pointer-events="none"><line transform="translate(0,300)" x2="0" y2="-300" stroke="#888" stroke-width="1" opacity="1"/></g><g class="mark-text role-axis-title" pointer-events="none"><text text-anchor="middle" transform="translate(-36.60416603088379,150) rotate(-90) translate(0,-2)" font-family="sans-serif" font-size="11px" font-weight="bold" fill="#000" opacity="1">MiB/s</text></g></g><path class="foreground" aria-hidden="true" d="" pointer-events="none" display="none"/></g></g></g><path class="foreground" aria-hidden="true" d="" display="none"/></g></g><g class="mark-group role-column-header column_header" role="graphics-object" aria-roledescription="group mark container"><g transform="translate(0,0)"><path class="background" aria-hidden="true" d="M0,0h100v0h-100Z"/><g><g class="mark-group role-title"><g transform="translate(50,-20)"><path class="background" aria-hidden="true" d="M0,0h0v0h0Z" pointer-events="none"/><g><g class="mark-text role-title-text" role="graphics-symbol" aria-roledescription="title" aria-label="Title text 'xfs-thick'" pointer-events="none"><text text-anchor="middle" transform="translate(0,8)" font-family="sans-serif" font-size="10px" fill="#000" opacity="1">xfs-thick</text></g></g><path class="foreground" aria-hidden="true" d="" pointer-events="none" display="none"/></g></g></g><path class="foreground" aria-hidden="true" d="" display="none"/></g><g transform="translate(120,0)"><path class="background" aria-hidden="true" d="M0,0h100v0h-100Z"/><g><g class="mark-group role-title"><g transform="translate(50,-20)"><path class="background" aria-hidden="true" d="M0,0h0v0h0Z" pointer-events="none"/><g><g class="mark-text role-title-text" role="graphics-symbol" aria-roledescription="title" aria-label="Title text 'xfs-thin'" pointer-events="none"><text text-anchor="middle" transform="translate(0,8)" font-family="sans-serif" font-size="10px" fill="#000" opacity="1">xfs-thin</text></g></g><path class="foreground" aria-hidden="true" d="" pointer-events="none" display="none"/></g></g></g><path class="foreground" aria-hidden="true" d="" display="none"/></g></g><g class="mark-group role-column-footer column_footer" role="graphics-object" aria-roledescription="group mark container"><g transform="translate(0,300)"><path class="background" aria-hidden="true" d="M0,0h100v0h-100Z"/><g><g class="mark-group role-axis" role="graphics-symbol" aria-roledescription="axis" aria-label="X-axis for a discrete scale with 5 values: 0, 1, 10, 100, 1000"><g transform="translate(0.5,0.5)"><path class="background" aria-hidden="true" d="M0,0h0v0h0Z" pointer-events="none"/><g><g class="mark-rule role-axis-tick" pointer-events="none"><line transform="translate(10,0)" x2="0" y2="5" stroke="#888" stroke-width="1" opacity="1"/><line transform="translate(30,0)" x2="0" y2="5" stroke="#888" stroke-width="1" opacity="1"/><line transform="translate(50,0)" x2="0" y2="5" stroke="#888" stroke-width="1" opacity="1"/><line transform="translate(70,0)" x2="0" y2="5" stroke="#888" stroke-width="1" opacity="1"/><line transform="translate(90,0)" x2="0" y2="5" stroke="#888" stroke-width="1" opacity="1"/></g><g class="mark-text role-axis-label" pointer-events="none"><text text-anchor="end" transform="translate(9.5,7) rotate(270) translate(0,3)" font-family="sans-serif" font-size="10px" fill="#000" opacity="1">0</text><text text-anchor="end" transform="translate(29.5,7) rotate(270) translate(0,3)" font-family="sans-serif" font-size="10px" fill="#000" opacity="1">1</text><text text-anchor="end" transform="translate(49.5,7) rotate(270) translate(0,3)" font-family="sans-serif" font-size="10px" fill="#000" opacity="1">10</text><text text-anchor="end" transform="translate(69.5,7) rotate(270) translate(0,3)" font-family="sans-serif" font-size="10px" fill="#000" opacity="1">100</text><text text-anchor="end" transform="translate(89.5,7) rotate(270) translate(0,3)" font-family="sans-serif" font-size="10px" fill="#000" opacity="1">1000</text></g><g class="mark-rule role-axis-domain" pointer-events="none"><line transform="translate(0,0)" x2="100" y2="0" stroke="#888" stroke-width="1" opacity="1"/></g></g><path class="foreground" aria-hidden="true" d="" pointer-events="none" display="none"/></g></g></g><path class="foreground" aria-hidden="true" d="" display="none"/></g><g transform="translate(120,300)"><path class="background" aria-hidden="true" d="M0,0h100v0h-100Z"/><g><g class="mark-group role-axis" role="graphics-symbol" aria-roledescription="axis" aria-label="X-axis for a discrete scale with 5 values: 0, 1, 10, 100, 1000"><g transform="translate(0.5,0.5)"><path class="background" aria-hidden="true" d="M0,0h0v0h0Z" pointer-events="none"/><g><g class="mark-rule role-axis-tick" pointer-events="none"><line transform="translate(10,0)" x2="0" y2="5" stroke="#888" stroke-width="1" opacity="1"/><line transform="translate(30,0)" x2="0" y2="5" stroke="#888" stroke-width="1" opacity="1"/><line transform="translate(50,0)" x2="0" y2="5" stroke="#888" stroke-width="1" opacity="1"/><line transform="translate(70,0)" x2="0" y2="5" stroke="#888" stroke-width="1" opacity="1"/><line transform="translate(90,0)" x2="0" y2="5" stroke="#888" stroke-width="1" opacity="1"/></g><g class="mark-text role-axis-label" pointer-events="none"><text text-anchor="end" transform="translate(9.5,7) rotate(270) translate(0,3)" font-family="sans-serif" font-size="10px" fill="#000" opacity="1">0</text><text text-anchor="end" transform="translate(29.5,7) rotate(270) translate(0,3)" font-family="sans-serif" font-size="10px" fill="#000" opacity="1">1</text><text text-anchor="end" transform="translate(49.5,7) rotate(270) translate(0,3)" font-family="sans-serif" font-size="10px" fill="#000" opacity="1">10</text><text text-anchor="end" transform="translate(69.5,7) rotate(270) translate(0,3)" font-family="sans-serif" font-size="10px" fill="#000" opacity="1">100</text><text text-anchor="end" transform="translate(89.5,7) rotate(270) translate(0,3)" font-family="sans-serif" font-size="10px" fill="#000" opacity="1">1000</text></g><g class="mark-rule role-axis-domain" pointer-events="none"><line transform="translate(0,0)" x2="100" y2="0" stroke="#888" stroke-width="1" opacity="1"/></g></g><path class="foreground" aria-hidden="true" d="" pointer-events="none" display="none"/></g></g></g><path class="foreground" aria-hidden="true" d="" display="none"/></g></g><g class="mark-group role-scope cell" role="graphics-object" aria-roledescription="group mark container"><g transform="translate(0,0)"><path class="background" aria-hidden="true" d="M0.5,0.5h100v300h-100Z" stroke="#ddd" stroke-opacity="0"/><g><g class="mark-rect role-mark child_marks" role="graphics-object" aria-roledescription="rect mark container"><path aria-label="c2: 0; values: 1862.5; RW: Read MiB/s" role="graphics-symbol" aria-roledescription="bar" d="M1,20.624999999999993h18v279.375h-18Z" fill="#63993d"/><path aria-label="c2: 1; values: 1424; RW: Read MiB/s" role="graphics-symbol" aria-roledescription="bar" d="M21,86.4h18v213.6h-18Z" fill="#63993d"/><path aria-label="c2: 10; values: 187; RW: Read MiB/s" role="graphics-symbol" aria-roledescription="bar" d="M41,271.95h18v28.05000000000001h-18Z" fill="#63993d"/><path aria-label="c2: 100; values: 16.4; RW: Read MiB/s" role="graphics-symbol" aria-roledescription="bar" d="M61,297.54h18v2.4599999999999795h-18Z" fill="#63993d"/><path aria-label="c2: 1000; values: 0; RW: Read MiB/s" role="graphics-symbol" aria-roledescription="bar" d="M81,300h18v0h-18Z" fill="#63993d"/><path aria-label="c2: 0; values: 798.5; RW: Write MiB/s" role="graphics-symbol" aria-roledescription="bar" d="M1,180.225h18v119.775h-18Z" fill="#ee0000"/><path aria-label="c2: 1; values: 610.75; RW: Write MiB/s" role="graphics-symbol" aria-roledescription="bar" d="M21,208.38750000000002h18v91.61249999999998h-18Z" fill="#ee0000"/><path aria-label="c2: 10; values: 80.15; RW: Write MiB/s" role="graphics-symbol" aria-roledescription="bar" d="M41,287.9775h18v12.02249999999998h-18Z" fill="#ee0000"/><path aria-label="c2: 100; values: 7.04; RW: Write MiB/s" role="graphics-symbol" aria-roledescription="bar" d="M61,298.944h18v1.0559999999999832h-18Z" fill="#ee0000"/><path aria-label="c2: 1000; values: 0; RW: Write MiB/s" role="graphics-symbol" aria-roledescription="bar" d="M81,300h18v0h-18Z" fill="#ee0000"/></g></g><path class="foreground" aria-hidden="true" d="" display="none"/></g><g transform="translate(120,0)"><path class="background" aria-hidden="true" d="M0.5,0.5h100v300h-100Z" stroke="#ddd" stroke-opacity="0"/><g><g class="mark-rect role-mark child_marks" role="graphics-object" aria-roledescription="rect mark container"><path aria-label="c2: 0; values: 1936.25; RW: Read MiB/s" role="graphics-symbol" aria-roledescription="bar" d="M1,9.562499999999996h18v290.4375h-18Z" fill="#63993d"/><path aria-label="c2: 1; values: 1548.5; RW: Read MiB/s" role="graphics-symbol" aria-roledescription="bar" d="M21,67.72500000000001h18v232.27499999999998h-18Z" fill="#63993d"/><path aria-label="c2: 10; values: 1531.75; RW: Read MiB/s" role="graphics-symbol" aria-roledescription="bar" d="M41,70.23750000000001h18v229.7625h-18Z" fill="#63993d"/><path aria-label="c2: 100; values: 1537; RW: Read MiB/s" role="graphics-symbol" aria-roledescription="bar" d="M61,69.45000000000002h18v230.54999999999998h-18Z" fill="#63993d"/><path aria-label="c2: 1000; values: 1536.25; RW: Read MiB/s" role="graphics-symbol" aria-roledescription="bar" d="M81,69.56250000000001h18v230.4375h-18Z" fill="#63993d"/><path aria-label="c2: 0; values: 830.25; RW: Write MiB/s" role="graphics-symbol" aria-roledescription="bar" d="M1,175.4625h18v124.5375h-18Z" fill="#ee0000"/><path aria-label="c2: 1; values: 663.75; RW: Write MiB/s" role="graphics-symbol" aria-roledescription="bar" d="M21,200.43750000000003h18v99.56249999999997h-18Z" fill="#ee0000"/><path aria-label="c2: 10; values: 657; RW: Write MiB/s" role="graphics-symbol" aria-roledescription="bar" d="M41,201.45h18v98.55000000000001h-18Z" fill="#ee0000"/><path aria-label="c2: 100; values: 659.25; RW: Write MiB/s" role="graphics-symbol" aria-roledescription="bar" d="M61,201.11249999999998h18v98.88750000000002h-18Z" fill="#ee0000"/><path aria-label="c2: 1000; values: 658.5; RW: Write MiB/s" role="graphics-symbol" aria-roledescription="bar" d="M81,201.225h18v98.775h-18Z" fill="#ee0000"/></g></g><path class="foreground" aria-hidden="true" d="" display="none"/></g></g><g class="mark-group role-legend" role="graphics-symbol" aria-roledescription="legend" aria-label="Symbol legend titled 'RW' for fill color with 2 values: Read MiB/s, Write MiB/s"><g transform="translate(238,0)"><path class="background" aria-hidden="true" d="M0,0h71v40h-71Z" pointer-events="none"/><g><g class="mark-group role-legend-entry"><g transform="translate(0,16)"><path class="background" aria-hidden="true" d="M0,0h0v0h0Z" pointer-events="none"/><g><g class="mark-group role-scope" role="graphics-object" aria-roledescription="group mark container"><g transform="translate(0,0)"><path class="background" aria-hidden="true" d="M0,0h70.4375v11h-70.4375Z" pointer-events="none" opacity="1"/><g><g class="mark-symbol role-legend-symbol" pointer-events="none"><path transform="translate(6,6)" d="M-5,-5h10v10h-10Z" fill="#63993d" stroke-width="1.5" opacity="1"/></g><g class="mark-text role-legend-label" pointer-events="none"><text text-anchor="start" transform="translate(16,9)" font-family="sans-serif" font-size="10px" fill="#000" opacity="1">Read MiB/s</text></g></g><path class="foreground" aria-hidden="true" d="" pointer-events="none" display="none"/></g><g transform="translate(0,13)"><path class="background" aria-hidden="true" d="M0,0h70.4375v11h-70.4375Z" pointer-events="none" opacity="1"/><g><g class="mark-symbol role-legend-symbol" pointer-events="none"><path transform="translate(6,6)" d="M-5,-5h10v10h-10Z" fill="#ee0000" stroke-width="1.5" opacity="1"/></g><g class="mark-text role-legend-label" pointer-events="none"><text text-anchor="start" transform="translate(16,9)" font-family="sans-serif" font-size="10px" fill="#000" opacity="1">Write MiB/s</text></g></g><path class="foreground" aria-hidden="true" d="" pointer-events="none" display="none"/></g></g></g><path class="foreground" aria-hidden="true" d="" pointer-events="none" display="none"/></g></g><g class="mark-text role-legend-title" pointer-events="none"><text text-anchor="start" transform="translate(0,9)" font-family="sans-serif" font-size="11px" font-weight="bold" fill="#000" opacity="1">RW</text></g></g><path class="foreground" aria-hidden="true" d="" pointer-events="none" display="none"/></g></g><g class="mark-group role-title"><g transform="translate(130.6979169845581,-37)"><path class="background" aria-hidden="true" d="M0,0h0v0h0Z" pointer-events="none"/><g><g class="mark-text role-title-text" role="graphics-symbol" aria-roledescription="title" aria-label="Title text 'IO Bandwidth vs Number of Snapshots'" pointer-events="none"><text text-anchor="middle" transform="translate(0,10)" font-family="sans-serif" font-size="13px" font-weight="bold" fill="#000" opacity="1">IO Bandwidth vs Number of Snapshots</text></g></g><path class="foreground" aria-hidden="true" d="" pointer-events="none" display="none"/></g></g></g><path class="foreground" aria-hidden="true" d="" display="none"/></g></g></g></svg>